<svg xmlns="http://www.w3.org/2000/svg"
shape-rendering="geometricPrecision"
width="4000" height="4000" viewBox="0 0 792 792">
  <metadata>null</metadata>

<path d="
M 36.767 282.315
C 46.787 282.366 56.81 282.345 66.832 282.363
C 81.579 282.39 97.103 282.885 108.703 293.32
C 117.952 301.641 122.224 313.696 124.517 325.591
C 128.874 348.203 128.92 372.978 123.956 395.51
C 121.356 407.313 116.895 419.533 107.107 427.292
C 93.683 437.931 76.096 436.759 59.997 436.732
C 52.314 436.719 44.315 437.38 36.668 436.705
C 36.933 401.311 36.759 365.902 36.689 330.507
C 36.668 319.506 36.611 308.506 36.611 297.505
C 36.611 294.198 36.644 290.89 36.628 287.582
C 36.619 285.885 36.326 283.96 36.767 282.315 Z
M 63.77 307.152
C 64.427 318.687 63.792 330.444 63.813 342.002
C 63.856 365.334 63.938 388.67 63.915 412
C 72.332 411.668 82.224 413.608 89.215 407.605
C 95.403 402.293 97.219 393.157 98.251 385.46
C 100.479 368.844 100.892 351.352 98.768 334.705
C 97.801 327.13 96.092 318.133 90.404 312.536
C 83.341 305.587 72.809 307.223 63.77 307.152 Z"
opacity="1" fill="rgb(116,58,32)" fill-rule="evenodd" />
<path d="
M 40.889 458.737
C 46.03 458.627 51.18 458.775 56.324 458.703
C 61.445 458.631 66.718 458.376 71.277 461.139
C 82.415 467.891 81.949 485.908 69.89 491.391
C 65.931 493.191 61.787 493.382 57.504 493.387
C 55.573 493.389 53.472 493.084 51.571 493.425
C 51.464 497.701 51.34 502.003 51.527 506.287
C 51.554 506.907 52.012 510.145 51.51 510.427
C 48.028 510.397 44.554 510.212 41.075 510.356
C 40.67 506.173 41.086 501.766 41.044 497.555
C 40.917 484.652 41.457 471.603 40.889 458.737 Z
M 51.412 469.008
C 51.058 473.994 51.56 479.024 51.404 484.01
C 55.579 483.764 61.891 485.287 65.559 482.771
C 69.904 479.79 70.152 472.092 65.369 469.349
C 64.096 468.619 62.522 468.621 61.101 468.525
C 58.005 468.317 54.719 468.212 51.635 468.526
C 51.56 468.687 51.486 468.847 51.412 469.008 Z"
opacity="1" fill="rgb(210,70,46)" fill-rule="evenodd" />
<path d="
M 88.945 458.76
C 91.326 458.693 93.711 458.812 96.093 458.808
C 97.13 458.806 98.452 458.549 99.434 458.865
C 99.36 465.756 100.012 472.694 99.671 479.578
C 106.395 479.28 113.23 479.949 119.931 479.459
C 119.592 472.586 120.293 465.655 119.846 458.79
C 122.302 458.861 124.767 458.847 127.225 458.838
C 127.96 458.835 129.697 458.474 130.301 458.858
C 129.991 468.218 130.234 477.635 130.209 487.002
C 130.188 494.764 129.816 502.639 130.282 510.388
C 126.86 510.455 123.443 510.128 120.017 510.305
C 119.711 510.023 119.88 509.443 119.88 509.053
C 119.881 507.701 119.88 506.349 119.872 504.996
C 119.842 500.008 119.218 494.584 119.806 489.648
C 118.296 488.865 115.42 489.363 113.74 489.363
C 109.108 489.363 104.352 489.623 99.737 489.271
C 99.111 491.052 99.602 493.876 99.585 495.794
C 99.541 500.536 98.974 505.65 99.622 510.347
C 96.14 510.245 92.615 510.425 89.143 510.242
C 89.611 500.705 89.192 491.055 89.148 481.506
C 89.113 473.958 89.557 466.286 88.945 458.76 Z"
opacity="1" fill="rgb(209,70,47)" fill-rule="evenodd" />
<path d="
M 138.429 458.635
C 142.254 458.954 146.329 458.773 150.162 458.568
C 151.645 460.563 152.599 463.271 153.676 465.523
C 156.296 471.008 158.591 476.875 161.525 482.182
C 163.363 476.793 166.463 471.683 169.06 466.63
C 170.324 464.171 171.235 461.007 172.914 458.829
C 176.765 458.774 181.064 458.359 184.873 458.9
C 183.886 461.315 181.987 463.521 180.794 465.876
C 177.646 472.088 174.177 478.133 170.983 484.322
C 169.668 486.872 167.427 489.727 166.741 492.515
C 166.364 494.043 166.626 495.969 166.605 497.544
C 166.547 501.803 166.76 506.074 166.667 510.328
C 165.532 510.616 163.943 510.326 162.765 510.303
C 160.551 510.262 158.318 510.411 156.111 510.329
C 156.248 506.317 156.182 502.277 156.154 498.26
C 156.141 496.369 156.512 494.027 156.021 492.196
C 155.095 488.743 152.351 485.114 150.683 481.936
C 146.603 474.168 142.642 466.328 138.429 458.635 Z"
opacity="1" fill="rgb(208,70,45)" fill-rule="evenodd" />
<path d="
M 142.952 285.11
C 143.02 284.336 143.084 283.563 143.4 282.851
C 145.271 281.954 147.979 282.428 150.007 282.419
C 154.507 282.401 159.006 282.386 163.506 282.412
C 165.075 282.421 168.577 281.758 169.776 282.799
C 170.473 285.044 170.138 287.674 170.137 289.998
C 170.135 294.332 170.125 298.666 170.13 303
C 170.147 316.863 170.955 330.98 170.151 344.817
C 173.758 345.316 177.847 344.789 181.503 344.786
C 189.418 344.78 197.335 344.78 205.247 344.856
C 204.674 332.977 205.288 320.901 205.285 309.002
C 205.283 300.456 204.438 291.399 205.446 282.913
C 206.417 281.745 210.564 282.413 212.006 282.409
C 218.74 282.39 225.474 282.448 232.203 282.586
C 232.714 287.116 232.29 291.935 232.292 296.498
C 232.296 305.332 232.317 314.165 232.31 322.999
C 232.288 349.168 232.368 375.337 232.4 401.506
C 232.409 409.505 232.398 417.505 232.382 425.505
C 232.374 429.126 231.797 433.206 232.312 436.774
C 223.406 436.693 214.365 436.345 205.471 436.849
C 204.833 436.308 205.283 433.418 205.283 432.501
C 205.28 428.502 205.272 424.502 205.27 420.502
C 205.266 409.335 205.297 398.168 205.279 387.002
C 205.27 381.429 204.687 375.517 205.268 369.983
C 204.661 369.631 203.376 369.863 202.676 369.861
C 200.284 369.853 197.891 369.846 195.498 369.841
C 187.114 369.825 178.706 369.673 170.327 369.907
C 169.746 371.583 170.192 374.209 170.189 376
C 170.18 380.5 170.162 385 170.156 389.5
C 170.14 400.5 170.168 411.5 170.168 422.5
C 170.168 425.801 170.147 429.101 170.119 432.401
C 170.108 433.709 169.647 435.442 169.942 436.7
C 161.101 437.304 151.968 436.816 143.106 436.712
C 142.413 404.504 142.785 372.218 142.813 340
C 142.823 328.331 142.886 316.662 142.873 304.992
C 142.865 298.418 142.443 291.664 142.952 285.11 Z"
opacity="1" fill="rgb(191,126,57)" fill-rule="evenodd" />
<path d="
M 189.581 495.382
C 192.755 495.233 195.925 495.115 199.092 494.829
C 199.729 495.56 199.656 496.931 200.097 497.832
C 201.097 499.871 203.076 501.151 205.234 501.668
C 207.773 502.276 211.073 502.278 213.445 501.075
C 216.276 499.64 217.582 496.42 215.965 493.56
C 214.066 490.2 208.986 489.667 205.655 488.644
C 197.398 486.109 189.028 481.335 190.433 471.332
C 190.742 469.135 191.471 466.991 192.635 465.097
C 198.227 455.994 211.598 456.168 219.549 461.621
C 222.548 463.678 224.387 466.868 225.466 470.275
C 225.768 471.23 226.436 473.567 225.764 474.357
C 222.521 474.154 218.745 473.846 215.535 474.376
C 214.122 471.441 213.927 468.869 210.278 467.717
C 206.182 466.424 199.433 468.734 200.867 474.1
C 201.977 478.252 207.304 479.122 210.791 480.239
C 218.753 482.79 227.765 486.774 227.119 496.66
C 226.131 511.783 205.597 515.225 195.082 507.591
C 192.703 505.865 190.843 503.306 189.936 500.508
C 189.422 498.923 189.414 497.169 188.799 495.66
C 189.06 495.567 189.32 495.475 189.581 495.382 Z"
opacity="1" fill="rgb(209,69,45)" fill-rule="evenodd" />
<path d="
M 237.528 459.619
C 237.541 459.055 237.489 459.368 237.772 458.701
C 240.217 458.793 242.681 458.763 245.13 458.761
C 245.869 458.761 247.31 458.454 247.887 458.898
C 247.727 476.024 247.712 493.264 248.174 510.384
C 244.827 510.176 240.985 510.826 237.726 510.175
C 238.229 502.025 237.631 493.673 237.595 485.504
C 237.557 476.913 238.072 468.189 237.528 459.619 Z"
opacity="1" fill="rgb(212,73,45)" fill-rule="evenodd" />
<path d="
M 252.868 282.79
C 254.753 282.149 257.057 282.408 259.022 282.389
C 262.707 282.354 266.393 282.407 270.078 282.401
C 282.719 282.381 295.359 282.36 308 282.312
C 312.335 282.295 316.669 282.273 321.004 282.317
C 322.259 282.33 324.892 281.798 325.931 282.425
C 325.112 290.612 326.121 299.139 325.833 307.365
C 324.934 307.892 323.2 307.584 322.186 307.577
C 319.124 307.558 316.061 307.58 312.999 307.576
C 301.934 307.563 290.836 307.422 279.778 307.763
C 280.217 312.067 279.778 316.661 279.778 320.998
C 279.779 328.703 279.935 336.429 279.752 344.131
C 287.488 343.967 295.262 344.138 303.002 344.221
C 304.835 344.241 306.668 344.258 308.501 344.279
C 309.124 344.287 310.395 344.061 310.807 344.537
C 310.913 352.901 310.567 361.292 310.755 369.649
C 300.513 369.909 289.943 368.722 279.753 369.72
C 280.134 373.915 279.822 378.282 279.821 382.497
C 279.819 392.19 279.608 401.926 279.899 411.614
C 281.031 411.952 282.795 411.621 284.005 411.625
C 287.171 411.638 290.338 411.65 293.504 411.638
C 304.535 411.598 315.756 411.01 326.769 411.624
C 326.292 416.646 326.768 421.948 326.779 426.999
C 326.786 430.152 326.29 433.741 326.791 436.842
C 324.766 437.282 322.084 436.779 319.997 436.769
C 314.831 436.745 309.664 436.761 304.497 436.758
C 287.381 436.75 270.182 436.311 253.074 436.83
C 252.131 431.32 252.866 425.089 252.852 419.496
C 252.823 407.661 252.903 395.826 252.918 383.991
C 252.959 350.273 252.386 316.513 252.868 282.79 Z"
opacity="1" fill="rgb(202,174,140)" fill-rule="evenodd" />
<path d="
M 259.384 480.596
C 260.12 477.288 260.885 474.027 262.612 471.057
C 267.969 461.845 278.155 457.283 288.599 457.974
C 293.259 458.282 297.939 459.978 301.84 462.535
C 302.729 463.118 305.324 464.427 305.485 465.548
C 303.756 468.142 301.167 470.298 299.219 472.761
C 298.7 472.825 297.856 471.917 297.45 471.62
C 296.16 470.673 294.752 469.919 293.261 469.344
C 288.341 467.444 282.428 467.593 277.745 470.058
C 266.72 475.862 266.968 492.901 277.232 499.204
C 284.264 503.523 292.581 501.175 298.589 496.368
C 300.66 499.02 302.854 501.649 305.753 503.428
C 303.075 506.943 297.971 509.195 293.838 510.306
C 278.513 514.427 262.318 506.016 259.457 489.806
C 258.92 486.763 258.903 483.646 259.384 480.596 Z"
opacity="1" fill="rgb(209,67,42)" fill-rule="evenodd" />
<path d="
M 311.389 495.327
C 314.813 494.968 318.298 495.064 321.706 494.563
C 322.308 495.482 322.234 496.822 322.719 497.846
C 323.841 500.217 326.331 501.477 328.813 501.927
C 333.252 502.732 341.705 500.6 338.993 494.344
C 337.145 490.08 331.457 489.509 327.533 488.31
C 321.917 486.593 315.553 483.779 313.774 477.594
C 313.21 475.635 313.188 473.538 313.319 471.518
C 313.469 469.178 314.447 466.824 315.699 464.862
C 321.369 455.979 335.771 456.102 343.233 462.26
C 346.175 464.688 349.749 470.143 348.856 474.223
C 346.41 474.144 343.947 474.205 341.498 474.205
C 340.605 474.205 339.533 474.451 338.691 474.166
C 337.824 469.653 334.984 467.413 330.345 467.451
C 326.73 467.481 322.511 469.681 323.464 473.96
C 324.407 478.193 330.617 479.474 334.1 480.555
C 341.66 482.901 349.142 486.128 349.999 495.003
C 350.145 496.506 350.026 497.935 349.654 499.414
C 346.262 512.905 326.448 514.769 316.954 506.942
C 313.305 503.934 312.107 499.799 311.389 495.327 Z"
opacity="1" fill="rgb(208,66,44)" fill-rule="evenodd" />
<path d="
M 315.928 342.583
C 318.953 332.324 330.001 329.831 338.893 326.796
C 339.219 325.829 338.426 324.318 338.113 323.389
C 337.291 320.955 337.178 318.294 336.43 315.882
C 334.382 314.479 332.452 313.259 331.763 310.69
C 330.211 304.905 335.502 299.971 341.085 301.068
C 342.757 301.397 344.379 302.464 345.247 303.942
C 345.693 304.702 345.936 305.783 346.566 306.384
C 352.652 306.699 359.047 308.17 364.941 309.667
C 367.527 310.324 370.198 311.546 372.847 311.838
C 372.631 310.116 373.13 308.627 373.425 306.97
C 365.868 304.821 357.853 303.051 350.028 302.313
C 349.4 301.879 350.079 298.519 350.091 297.611
C 350.157 292.637 350.186 287.654 350.1 282.681
C 358.81 281.943 367.759 282.388 376.5 282.373
C 378.813 282.369 381.127 282.343 383.44 282.41
C 384.545 282.443 385.697 282.732 386.787 282.488
C 389.012 281.556 390.37 280.512 392.95 280.419
C 397.499 280.255 401.33 283.424 403.951 286.865
C 409.334 293.934 411.666 303.114 413.999 311.498
C 414.613 311.641 415.211 311.227 415.781 310.982
C 417.169 310.386 418.637 310.015 420.071 309.546
C 424.178 308.202 428.172 308.148 432.4 307.74
C 432.88 307.133 432.948 305.972 433.206 305.239
C 433.745 303.712 434.9 302.46 436.418 301.862
C 442.526 299.457 450.963 303.822 449.537 311.132
C 448.998 313.893 447.005 315.124 444.991 316.744
C 444.874 319.234 444.488 321.556 443.876 323.969
C 443.587 325.111 442.602 326.794 442.901 327.926
C 446.603 328.587 450.104 329.668 453.529 331.232
C 456.032 332.375 458.576 333.676 460.765 335.359
C 461.929 336.254 462.992 337.25 463.864 338.437
C 470.263 347.147 459.418 357.329 452.632 362.024
C 450.851 363.256 448.966 364.351 447.117 365.476
C 446.304 365.971 445.11 366.547 444.622 367.382
C 446.017 370.571 448.066 373.391 449.296 376.695
C 449.78 377.996 450.275 379.328 450.609 380.676
C 450.774 381.342 450.675 382.269 451.067 382.856
C 451.455 383.436 452.367 383.771 452.91 384.196
C 454.389 385.35 455.504 386.993 455.642 388.905
C 456.15 395.923 447.922 400.911 442.538 395.683
C 440.793 395.756 439.187 396.731 437.352 396.778
C 429.285 396.985 420.607 395.321 412.954 392.852
C 411.438 394.933 411.001 398.579 410.122 401.026
C 408.076 406.723 404.835 413.11 400.259 417.166
C 395.96 420.977 390.287 421.516 385.827 417.673
C 383.959 416.063 382.329 414.084 380.943 412.049
C 378.261 408.109 376.358 403.323 374.435 398.97
C 373.813 397.561 373.316 394.335 372.109 393.467
C 362.876 396.325 352.184 398.887 342.469 397.692
C 336.935 397.011 331.69 394.27 330.439 388.409
C 329.37 383.4 331.523 377.538 333.796 373.151
C 334.713 371.382 335.725 369.672 336.653 367.909
C 337.047 367.16 337.821 366.25 336.824 365.763
C 335.054 366.025 333.763 367.572 332.011 367.778
C 327.397 368.319 325.641 363.115 326.757 359.562
C 326.52 359.083 325.619 359.041 325.125 358.843
C 324.117 358.439 323.194 357.666 322.359 356.983
C 318.41 353.749 314.571 347.847 315.928 342.583 Z
M 318.882 342.546
C 317.07 348.987 323.148 353.864 327.126 357.921
C 327.992 358.043 329.321 356.712 330.372 356.574
C 331.152 356.472 331.943 356.465 332.725 356.556
C 337.149 357.067 337.038 360.988 337.589 364.425
C 338.534 365.786 340.608 362.291 341.057 361.66
C 342.833 359.166 344.588 356.627 346.55 354.274
C 347.752 352.832 349.474 351.277 350.189 349.52
C 349.819 347.382 347.746 345.189 346.719 343.286
C 345.17 340.417 343.906 337.374 342.575 334.4
C 341.859 332.8 341.414 330.625 340.073 329.433
C 333.563 331.834 326.501 333.245 321.491 338.457
C 320.417 339.697 319.548 341.046 318.882 342.546 Z
M 332.949 385.613
C 332.867 391.617 337.818 394.304 343.11 395.046
C 352.987 396.43 362.256 392.458 371.848 391.229
C 372.204 389.682 370.128 386.757 369.662 385.237
C 366.31 387.175 362.548 387.98 358.806 388.823
C 355.785 389.504 352.598 390.373 349.484 390.347
C 348.79 389.711 349.442 386.73 349.511 385.786
C 349.832 381.428 349.787 376.962 349.782 372.594
C 349.241 371.951 348.056 371.811 347.279 371.49
C 345.087 370.583 341.712 368.13 339.393 368.232
C 336.204 373.736 333.605 379.243 332.949 385.613 Z
M 338.841 316.406
C 339.968 319.387 340.555 322.613 341.382 325.687
C 341.762 326.094 343.172 325.547 343.72 325.444
C 345.766 325.057 347.794 324.66 349.824 324.219
C 350.074 321.606 349.324 318.883 349.352 316.251
C 349.376 313.974 350.101 311.349 349.654 309.119
C 348.857 308.854 348.084 308.741 347.251 308.624
C 346.406 309.432 346.374 311.404 345.75 312.51
C 344.227 315.208 341.629 315.746 338.841 316.406 Z
M 341.453 365.031
C 341.043 365.639 341.132 365.307 341.17 366.022
C 343.695 367.219 346.927 369.328 349.682 369.807
C 349.808 365.795 349.781 361.763 349.832 357.748
C 349.839 357.228 350.27 354.372 349.711 354.262
C 346.625 357.388 343.928 361.411 341.453 365.031 Z
M 342.825 328.927
C 345.097 333.386 346.273 339.237 349.57 343.055
C 350.108 342.423 349.713 340.331 349.709 339.497
C 349.696 336.996 349.634 334.491 349.676 331.991
C 349.699 330.615 349.993 329.049 349.714 327.701
C 347.392 327.927 345.044 328.154 342.825 328.927 Z
M 372.936 385.572
C 372.771 387.099 373.394 388.954 374.005 390.345
C 377.574 389.395 381.06 387.804 384.231 385.919
C 385.04 385.438 387.261 384.762 387.41 383.823
C 383.754 382.288 378.903 383.469 375.055 383.329
C 374.085 383.769 373.373 384.612 372.936 385.572 Z
M 374.843 392.458
C 376.203 396.919 378.361 400.939 380.331 405.161
C 381.332 407.307 382.174 409.825 383.823 411.566
C 385.226 412.291 387.452 411.711 388.987 411.656
C 392.89 411.516 397.325 412.378 401.138 411.641
C 402.761 410.401 403.709 408.263 404.631 406.493
C 406.824 402.279 409.46 397.171 410.436 392.503
C 407.265 390.364 402.527 389.575 398.993 388.015
C 396.719 387.012 394.415 384.949 392.085 384.282
C 390.619 384.521 388.756 386.416 387.319 387.132
C 384.701 388.438 382.078 389.652 379.33 390.663
C 377.844 391.21 376.074 391.403 374.843 392.458 Z
M 375.958 310.114
C 375.844 311.126 375.756 312.109 375.996 313.108
C 379.722 314.662 383.528 315.961 387.151 317.803
C 388.663 318.571 390.798 320.47 392.52 320.501
C 393.787 320.523 394.946 319.601 396.028 319.067
C 398.788 317.707 401.552 316.258 404.409 315.114
C 406.266 314.371 408.167 313.551 410.066 312.935
C 410.549 312.778 411.537 312.901 411.879 312.52
C 411.792 311.047 411.149 309.199 410.509 307.864
C 409.964 307.47 408.875 307.649 408.177 307.671
C 406.591 307.721 405.005 307.744 403.419 307.755
C 396.945 307.801 390.47 307.718 383.997 307.797
C 382.171 307.819 380.346 307.889 378.52 307.901
C 377.707 307.906 376.837 307.82 376.258 308.451
C 376.179 309.012 376.078 309.561 375.958 310.114 Z
M 376.049 329.131
C 376.059 329.299 376.069 329.466 376.079 329.633
C 376.637 330.008 377.447 329.304 377.965 328.971
C 379.309 328.106 380.708 327.301 382.091 326.5
C 382.388 326.328 383.889 325.773 383.732 325.358
C 383.39 324.454 382.457 324.682 381.667 324.659
C 379.849 324.608 378.061 324.696 376.249 324.827
C 375.926 326.25 376.235 327.705 376.049 329.131 Z
M 376.388 316.46
C 376.254 318.483 376.287 320.509 376.298 322.535
C 377.304 322.706 378.37 322.317 379.391 322.306
C 381.76 322.279 384.139 322.478 386.506 322.395
C 387.107 322.374 389.451 322.556 389.848 322.07
C 387.575 319.645 383.182 318.439 380.129 317.312
C 378.931 316.869 377.624 315.953 376.388 316.46 Z
M 376.254 332.914
C 375.893 334.133 376.209 335.718 376.228 336.999
C 376.263 339.337 376.077 341.739 376.243 344.067
C 383.337 343.913 390.47 343.856 397.585 344.062
C 400.446 344.145 403.798 343.589 406.579 344.216
C 406.384 352.141 406.627 360.094 406.535 368.015
C 405.388 368.881 401.912 368.232 400.504 368.204
C 394.836 368.092 389.171 368.182 383.504 368.122
C 381.893 368.105 377.341 367.127 376.356 368.437
C 376.295 369.688 376.038 371.347 376.635 372.48
C 379.922 375.34 384.156 377.771 387.95 379.901
C 389.171 380.586 390.589 381.886 392.038 381.981
C 393.309 382.064 394.577 380.924 395.574 380.276
C 397.901 378.762 400.188 377.189 402.476 375.617
C 405.772 373.351 408.683 370.668 411.796 368.167
C 413.112 367.109 415.305 365.836 416.021 364.241
C 416.885 362.315 416.222 359.073 416.252 356.992
C 416.314 352.617 416.35 348.252 416.138 343.881
C 416.053 342.124 416.196 339.853 415.696 338.183
C 415.163 336.405 412.27 335.039 410.866 334.022
C 406.655 330.969 402.332 328.077 397.688 325.727
C 396.112 324.929 393.921 323.571 392.084 324.013
C 386.361 325.387 381.021 329.672 376.254 332.914 Z
M 376.4 377.149
C 376.433 378.256 376.578 379.72 377.252 380.605
C 379.458 380.734 381.705 381.027 383.885 381.39
C 384.232 381.448 385.882 381.758 385.861 381.112
C 385.163 380.295 383.719 379.979 382.769 379.476
C 380.611 378.332 378.723 376.794 376.394 376.022
C 376.396 376.397 376.398 376.773 376.4 377.149 Z
M 396.493 321.474
C 396.405 321.678 396.317 321.882 396.23 322.087
C 398.469 322.757 401.177 322.411 403.505 322.439
C 407.089 322.483 410.725 322.838 414.294 322.769
C 414.009 320.155 412.809 317.549 412.073 315.044
C 406.646 316.401 401.656 319.371 396.493 321.474 Z
M 396.291 383.463
C 396.315 383.655 396.339 383.846 396.364 384.038
C 401.183 385.948 405.951 389.163 411.248 389.728
C 412.357 386.804 413.266 383.244 413.66 380.141
C 411.05 380.47 408.572 381.318 405.989 381.781
C 402.758 382.359 399.436 382.477 396.291 383.463 Z
M 400.94 324.544
C 400.931 324.667 400.921 324.791 400.912 324.914
C 401.995 326.093 404.053 326.545 405.423 327.449
C 408.924 329.761 412.032 332.466 415.386 334.947
C 415.502 333.305 415.058 331.64 414.927 330.007
C 414.806 328.502 414.941 326.83 414.348 325.414
C 410.078 324.501 405.303 324.993 400.94 324.544 Z
M 400.979 379.495
C 400.882 379.692 400.785 379.89 400.687 380.088
C 401.802 380.447 403.105 379.983 404.243 379.807
C 406.374 379.478 408.418 378.875 410.522 378.441
C 411.778 378.183 413.357 378.05 414.385 377.231
C 415.135 375.213 414.832 372.635 415.191 370.498
C 415.317 369.753 415.945 368.42 415.506 367.729
C 414.293 368.613 413.36 369.917 412.254 370.937
C 408.984 373.952 404.836 377.311 400.979 379.495 Z
M 413.925 389.044
C 413.772 389.569 413.658 390.018 413.62 390.568
C 422.184 392.96 431.614 394.7 440.495 393.796
C 440.73 392.585 439.733 390.852 439.788 389.493
C 439.979 384.72 444.08 381.666 448.716 382.218
C 447.615 379.671 446.799 377.011 445.601 374.494
C 444.658 372.516 443.267 370.631 442.465 368.615
C 440.192 368.54 436.846 371.107 434.75 372.096
C 430.467 374.115 426.011 375.967 421.589 377.66
C 419.906 378.303 417.885 378.406 416.343 379.333
C 415.2 382.466 415.142 385.937 413.925 389.044 Z
M 415.147 313.927
C 415.356 316.204 416.195 318.451 416.562 320.722
C 416.696 321.55 416.53 322.703 416.977 323.394
C 424.775 322.946 433.338 325.152 440.763 327.284
C 441.289 326.767 441.302 325.319 441.472 324.603
C 441.995 322.396 442.604 320.19 442.963 317.949
C 439.027 317.641 435.419 317.816 433.059 313.907
C 432.327 312.693 432.166 311.246 431.633 309.953
C 426.157 310.792 420.247 311.698 415.147 313.927 Z
M 416.97 376.684
C 416.991 376.799 417.012 376.915 417.033 377.03
C 425.021 373.758 433.234 370.596 440.784 366.372
C 440.729 365.067 438.918 363.287 438.144 362.247
C 435.512 358.714 432.77 355.427 429.908 352.084
C 427.318 354.463 425.51 357.795 423.037 360.341
C 421.498 361.926 418.955 363.557 418.075 365.628
C 416.692 368.881 418.063 373.238 416.97 376.684 Z
M 417.586 325.475
C 417.411 325.584 417.235 325.694 417.06 325.803
C 417.372 327.918 417.633 330.124 417.714 332.262
C 417.766 333.622 417.465 335.222 417.854 336.541
C 418.283 337.998 420.676 339.296 421.809 340.214
C 424.664 342.527 426.677 345.757 429.437 348.07
C 430.676 347.72 431.531 345.187 432.188 344.103
C 434.182 340.816 436.102 337.393 437.638 333.865
C 438.183 332.613 439.118 331.058 439.181 329.69
C 436.158 328.509 432.92 328.085 429.745 327.491
C 425.704 326.735 421.679 325.893 417.586 325.475 Z
M 418.497 340.845
C 418.652 347.605 418.322 354.506 418.705 361.253
C 419.51 361.369 420.524 359.438 421.003 358.913
C 423.473 356.207 425.715 353.352 427.909 350.42
C 428.058 349.49 426.676 348.555 426.069 347.957
C 424.389 346.303 422.759 344.597 421.112 342.912
C 420.424 342.208 419.524 340.925 418.497 340.845 Z
M 460.51 349.539
C 458.674 346.24 460.143 341.389 457.528 338.435
C 457.062 336.243 455.263 335.146 453.377 334.219
C 449.811 332.464 445.766 331.352 441.869 330.636
C 439.677 333.973 438.349 338.171 436.458 341.73
C 434.9 344.663 432.61 347.157 431.054 350.02
C 434.47 352.849 437.439 356.733 439.93 360.377
C 440.669 361.459 442.013 364.803 443.16 365.3
C 448.17 362.144 453.41 359.061 457.616 354.818
C 458.784 353.639 461.106 351.36 460.51 349.539 Z"
opacity="1" fill="rgb(201,172,136)" fill-rule="evenodd" />
<path d="
M 349.704 402.752
C 353.603 401.407 358.143 401.685 362.179 400.703
C 363.87 400.291 365.602 400.006 367.271 399.509
C 368.129 399.253 369.113 398.775 370.012 398.867
C 370.987 400.672 371.591 402.803 372.408 404.707
C 376.157 413.451 382.758 426.454 394.326 425.011
C 396.08 424.792 397.739 424.275 399.319 423.481
C 401.306 422.483 402.997 421.135 404.493 419.497
C 406.69 417.092 408.411 414.652 409.954 411.784
C 410.87 411.356 412.477 411.735 413.503 411.757
C 416.168 411.813 418.836 411.776 421.502 411.761
C 422.395 411.756 424.216 411.343 424.918 411.853
C 424.483 419.997 424.407 428.624 424.855 436.759
C 399.909 437.468 374.877 435.929 349.94 436.961
C 349.159 425.602 350.287 414.125 349.704 402.752 Z"
opacity="1" fill="rgb(199,172,137)" fill-rule="evenodd" />
<path d="
M 378.341 458.724
C 386.558 458.714 394.785 458.69 403.006 458.694
C 406.674 458.695 410.998 458.023 414.586 458.718
C 414.445 461.879 414.739 465.093 414.591 468.25
C 413.675 467.906 412.008 468.223 411.003 468.222
C 407.811 468.221 404.621 468.2 401.436 468.361
C 401.485 482.354 401.866 496.385 401.614 510.376
C 398.251 510.568 394.841 510.186 391.46 510.383
C 390.938 509.98 391.212 508.541 391.234 507.892
C 391.322 505.267 391.253 502.631 391.249 500.006
C 391.239 493.007 391.238 486.008 391.2 479.009
C 391.182 475.544 391.593 471.781 391.089 468.354
C 387.037 468.122 382.485 469.009 378.521 468.234
C 378.712 465.087 378.666 461.861 378.341 458.724 Z"
opacity="1" fill="rgb(211,70,45)" fill-rule="evenodd" />
<path d="
M 406.154 282.323
C 410.431 282.237 414.725 282.288 419.005 282.316
C 420.818 282.328 422.901 282.005 424.671 282.317
C 424.034 287.036 424.493 292.248 424.597 297.007
C 424.637 298.882 425.25 301.825 424.505 303.557
C 422.673 304.088 420.717 304.095 418.875 304.629
C 418.223 304.818 417.364 305.426 416.713 305.159
C 415.186 297.122 410.629 289.021 406.154 282.323 Z"
opacity="1" fill="rgb(195,165,129)" fill-rule="evenodd" />
<path d="
M 422.777 458.746
C 426.231 458.967 429.784 458.887 433.243 458.751
C 432.838 466.618 433.237 474.618 433.251 482.5
C 433.258 486.534 432.607 491.373 433.92 495.249
C 436.157 501.858 445.969 503.716 450.443 498.185
C 453.108 494.891 452.455 489.783 452.465 485.826
C 452.488 476.812 452.267 467.774 452.483 458.773
C 455.981 458.415 459.675 458.771 463.199 458.684
C 462.58 467.49 463.266 476.517 463.218 485.35
C 463.192 490.099 463.458 495.26 461.504 499.712
C 455.407 513.603 433.074 515.916 425.462 502.052
C 422.524 496.7 422.794 490.838 422.809 484.915
C 422.832 476.222 423.176 467.427 422.777 458.746 Z"
opacity="1" fill="rgb(208,69,45)" fill-rule="evenodd" />
<path d="
M 452.313 366.931
C 454.239 365.527 456.313 364.332 458.26 362.944
C 464.861 358.236 472.622 349.485 469.865 340.685
C 469.327 338.97 468.398 337.356 467.358 335.899
C 465.929 333.895 464.18 332.114 462.256 330.585
C 459.834 328.66 456.928 327.256 453.958 326.432
C 453.634 325.529 453.826 324.455 453.81 323.503
C 453.772 321.17 453.783 318.837 453.777 316.505
C 453.756 308.838 453.705 301.171 453.681 293.505
C 453.673 291.007 453.713 288.506 453.667 286.009
C 453.648 284.91 453.325 283.332 453.805 282.354
C 465.145 282.419 476.491 282.401 487.831 282.386
C 501.564 282.368 515.517 282.653 526.446 292.224
C 532.78 297.772 536.664 305.885 538.564 313.971
C 543.037 333.012 542.059 359.456 525.429 372.761
C 519.265 377.693 511.315 380.766 503.524 381.774
C 496.174 382.724 488.723 382.149 481.338 382.457
C 480.884 383.882 481.27 385.987 481.254 387.499
C 481.213 391.5 481.219 395.501 481.211 399.502
C 481.195 407.835 481.211 416.169 481.213 424.502
C 481.214 428.513 480.868 432.703 481.218 436.693
C 476.693 436.385 472.046 436.65 467.508 436.651
C 462.908 436.652 458.2 436.395 453.614 436.706
C 453.161 435.875 453.428 434.431 453.425 433.495
C 453.418 431.328 453.413 429.162 453.409 426.995
C 453.397 421.496 453.39 415.995 453.409 410.496
C 453.419 407.536 453.755 404.319 453.221 401.401
C 458.978 397.891 461.29 391.185 458.635 384.818
C 457.711 382.603 455.532 381.12 454.702 379.007
C 453.332 375.519 452.621 370.663 452.313 366.931 Z
M 481.314 306.783
C 481.913 312.702 481.28 319.035 481.274 324.998
C 481.263 336.194 481.447 347.399 481.358 358.593
C 489.29 358.673 498.737 360.283 505.586 355.266
C 508.71 352.978 510.805 349.134 511.839 345.462
C 514.022 337.704 514.207 328.578 512.441 320.709
C 511.568 316.818 509.779 312.805 506.569 310.287
C 499.559 304.788 489.506 307.2 481.314 306.783 Z"
opacity="1" fill="rgb(169,46,38)" fill-rule="evenodd" />
<path d="
M 470.865 458.758
C 483.096 458.793 495.378 458.406 507.604 458.792
C 507.8 461.912 507.248 465.227 507.746 468.313
C 503.439 468.061 499.064 468.272 494.756 468.3
C 494.738 482.336 494.458 496.395 494.791 510.429
C 491.332 510.452 487.826 510.058 484.378 510.483
C 483.868 504.918 484.306 499.096 484.297 493.504
C 484.284 485.18 484.003 476.785 484.272 468.471
C 483.205 468.042 481.642 468.299 480.503 468.294
C 477.373 468.278 474.123 468.565 471.012 468.244
C 470.882 465.088 471.036 461.909 470.865 458.758 Z"
opacity="1" fill="rgb(209,72,47)" fill-rule="evenodd" />
<path d="
M 512.911 480.084
C 516.115 461.358 537.808 452.051 553.745 462.106
C 556.541 463.871 558.853 466.156 560.773 468.846
C 562.73 471.585 564.128 474.753 564.881 478.03
C 565.696 481.58 566.042 485.32 565.417 488.931
C 564.524 494.089 562.265 499.185 558.671 503.047
C 547.573 514.974 527.313 513.771 517.561 500.86
C 515.482 498.107 514.082 494.848 513.313 491.494
C 512.455 487.751 512.263 483.872 512.911 480.084 Z
M 522.981 484.124
C 522.899 486.799 523.534 489.494 524.47 491.977
C 527.664 500.449 538.625 503.964 546.41 499.861
C 551.724 497.06 554.948 491.507 555.134 485.531
C 555.214 482.973 554.726 480.172 553.766 477.803
C 552.976 475.855 551.879 473.9 550.393 472.396
C 548.896 470.881 547.041 469.798 545.058 469.053
C 534.419 465.06 523.329 472.836 522.981 484.124 Z"
opacity="1" fill="rgb(208,70,46)" fill-rule="evenodd" />
<path d="
M 532.47 436.078
C 540.633 405.961 549.555 376.034 557.565 345.878
C 563.187 324.714 569.053 303.465 575.539 282.551
C 577.97 281.739 581.443 282.334 584.008 282.338
C 590.044 282.345 596.089 282.277 602.124 282.392
C 604.901 289.588 606.31 297.531 608.552 304.929
C 613.541 321.385 618.244 337.978 622.892 354.534
C 625.07 362.295 627.331 370.035 629.534 377.789
C 630.143 379.931 630.796 382.063 631.389 384.208
C 631.593 384.946 632.222 386.104 632.186 386.841
C 624.609 389.025 617.097 393.716 611.593 399.327
C 606.64 404.376 602.429 411.348 594.488 411.525
C 582.492 411.793 576.459 397.586 582.148 388.026
C 585.51 382.376 591.036 382.086 596.834 381
C 598.974 380.598 601.078 379.782 603.258 379.644
C 603.492 378.382 602.41 376.031 602.093 374.77
C 601.186 371.164 600.424 367.527 599.606 363.9
C 597.164 353.073 594.626 342.272 592.154 331.452
C 591.415 328.214 590.644 324.984 589.906 321.746
C 589.511 320.015 589.385 318.077 588.41 316.57
C 585.384 332.583 581.318 348.485 577.497 364.325
C 576.366 369.016 575.226 373.704 574.082 378.393
C 573.593 380.395 572.569 382.509 572.373 384.546
C 573.237 385.737 572.596 386.978 572.239 388.272
C 571.374 391.413 570.555 394.551 569.814 397.724
C 566.771 410.74 563.45 423.676 560.203 436.634
C 557.784 437.341 554.047 436.592 551.507 436.594
C 545.09 436.6 538.649 436.847 532.238 436.714
C 532.316 436.502 532.393 436.29 532.47 436.078 Z"
opacity="1" fill="rgb(219,83,46)" fill-rule="evenodd" />
<path d="
M 576.269 458.789
C 581.777 458.981 587.338 458.772 592.854 458.759
C 598.385 458.746 603.39 458.874 608.1 462.147
C 618.354 469.271 615.364 487.425 603.36 490.597
C 603.437 492.282 605.652 494.643 606.542 496.098
C 609.456 500.859 612.112 506.059 615.504 510.485
C 614.897 510.829 612.936 510.426 612.208 510.407
C 609.34 510.335 606.418 510.202 603.557 510.44
C 601.82 508.425 600.557 505.44 599.162 503.144
C 596.97 499.534 594.095 495.889 592.425 492.018
C 590.89 491.313 588.305 492.184 586.673 492.207
C 587.261 498.184 586.811 504.372 586.882 510.378
C 583.524 511.016 579.828 510.066 576.405 510.471
C 575.88 505.595 576.367 500.405 576.36 495.497
C 576.342 483.28 576.709 470.996 576.269 458.789 Z
M 586.87 468.5
C 586.372 469.746 586.727 471.656 586.725 473
C 586.718 476.222 586.594 479.459 586.644 482.677
C 591.124 482.271 596.703 483.871 600.788 481.443
C 605.17 478.838 604.746 471.867 600.503 469.367
C 596.966 467.283 590.83 468.346 586.87 468.5 Z"
opacity="1" fill="rgb(208,69,46)" fill-rule="evenodd" />
<path d="
M 610.359 409.031
C 614.803 400.21 624.914 395.41 633.647 392.255
C 634.276 392.879 634.378 394.406 634.607 395.253
C 635.338 397.96 636.022 400.684 636.799 403.378
C 638.873 410.565 640.941 417.79 642.709 425.061
C 643.589 428.678 644.163 433.376 645.845 436.705
C 639.401 436.552 632.95 436.561 626.505 436.553
C 623.485 436.55 620.302 436.855 617.301 436.562
C 617.095 433.2 615.728 429.56 614.815 426.324
C 613.263 420.825 611.595 415.178 610.332 409.614
C 610.341 409.42 610.35 409.226 610.359 409.031 Z"
opacity="1" fill="rgb(221,87,46)" fill-rule="evenodd" />
<path d="
M 625.228 458.783
C 628.676 458.921 632.135 458.722 635.584 458.795
C 635.95 463.141 635.66 467.635 635.666 471.999
C 635.677 480.832 635.634 489.665 635.627 498.499
C 635.625 501.571 635.591 504.646 635.637 507.718
C 635.643 508.126 635.934 510.271 635.498 510.43
C 632.147 510.358 628.748 510.184 625.403 510.443
C 624.889 509.069 625.287 506.983 625.28 505.506
C 625.264 502.006 625.265 498.505 625.258 495.005
C 625.233 482.94 625.51 470.843 625.228 458.783 Z"
opacity="1" fill="rgb(205,69,45)" fill-rule="evenodd" />
<path d="
M 649.705 458.765
C 652.783 458.835 656.459 459.273 659.458 458.479
C 660.157 458.918 660.677 459.998 661.159 460.681
C 662.454 462.517 663.622 464.439 664.875 466.302
C 669.056 472.516 673.158 478.784 677.273 485.042
C 678.615 487.083 680.003 489.097 681.314 491.158
C 681.664 491.709 682.264 493.289 682.874 493.506
C 683.086 492.585 682.696 491.378 682.697 490.42
C 682.698 487.783 682.705 485.143 682.707 482.505
C 682.712 474.615 682.942 466.7 682.777 458.813
C 686.171 458.772 689.695 458.502 693.077 458.743
C 693.129 471.467 693.16 484.251 693.182 496.998
C 693.188 500.332 693.185 503.667 693.189 507.001
C 693.19 507.776 692.849 510.009 693.267 510.583
C 691.134 509.742 687.242 510.361 684.933 510.395
C 684.082 510.408 683.177 510.71 682.364 510.415
C 677.344 501.281 670.856 492.856 665.336 484.013
C 664.034 481.928 662.718 479.864 661.506 477.727
C 661.326 477.41 660.338 475.592 660.178 475.618
C 660.028 475.642 660.139 477.233 660.147 477.458
C 660.225 479.467 660.141 481.487 660.141 483.497
C 660.143 490.332 660.116 497.166 660.089 504
C 660.083 505.627 660.107 507.248 660.138 508.874
C 660.143 509.134 660.272 510.28 660.007 510.426
C 656.688 510.368 653.274 510.216 649.963 510.455
C 649.2 509.494 649.595 507.696 649.588 506.495
C 649.569 503.326 649.556 500.158 649.56 496.989
C 649.573 488.655 649.525 480.322 649.538 471.988
C 649.544 467.651 649.159 463.066 649.705 458.765 Z"
opacity="1" fill="rgb(204,67,45)" fill-rule="evenodd" />
<path d="
M 656.352 282.427
C 662.233 282.339 668.124 282.342 674.008 282.41
C 675.602 282.429 678.998 281.749 680.296 282.68
C 683.718 289.071 686.506 295.839 689.659 302.365
C 698.328 320.305 706.752 338.361 715.492 356.265
C 718.931 363.309 721.727 370.94 725.553 377.753
C 725.789 375.881 725.387 374 725.389 372.126
C 725.393 367.086 725.316 362.045 725.302 357.005
C 725.258 340.505 725.267 324.004 725.243 307.503
C 725.234 301.837 725.229 296.17 725.243 290.503
C 725.249 287.845 724.989 285.029 725.298 282.389
C 733.778 282.336 742.382 281.965 750.851 282.458
C 751.386 296.091 750.903 309.857 750.918 323.504
C 750.946 348.854 751.058 374.203 751.139 399.553
C 751.169 409.035 751.114 418.517 751.114 427.999
C 751.114 430.161 751.062 432.328 751.098 434.49
C 751.104 434.883 751.295 436.652 750.963 436.859
C 743.842 436.762 736.712 436.822 729.59 436.923
C 728.115 434.703 727.127 431.997 725.979 429.592
C 723.375 424.14 720.82 418.662 718.213 413.21
C 709.895 395.815 701.474 378.453 692.954 361.151
C 690.011 355.173 687.045 349.183 684.425 343.054
C 683.835 341.672 683.315 340.223 682.614 338.896
C 682.399 338.49 682.115 337.506 681.567 337.648
C 682.301 344.908 682.011 352.395 682.13 359.695
C 682.404 376.626 682.286 393.567 682.321 410.5
C 682.334 416.499 682.333 422.499 682.317 428.499
C 682.31 431.079 681.819 434.152 682.257 436.684
C 676.674 436.685 671.09 436.673 665.507 436.664
C 662.59 436.659 659.474 436.986 656.584 436.602
C 656.81 426.261 656.378 415.847 656.369 405.497
C 656.346 378.832 656.286 352.166 656.341 325.501
C 656.361 316.002 656.329 306.504 656.309 297.005
C 656.299 292.21 655.886 287.197 656.352 282.427 Z"
opacity="1" fill="rgb(192,63,44)" fill-rule="evenodd" />
<path d="
M 704.381 480.596
C 705.006 477.715 705.601 474.976 706.94 472.316
C 711.483 463.29 721.046 457.872 731.087 457.909
C 736.705 457.93 742.221 459.606 746.907 462.698
C 748.022 463.434 749.102 464.201 750.099 465.091
C 750.293 465.264 750.854 465.559 750.78 465.832
C 748.989 468.264 746.614 470.385 744.696 472.747
C 744.309 472.917 742.664 471.42 742.286 471.168
C 740.269 469.822 737.9 468.867 735.517 468.416
C 724.581 466.345 713.44 474.131 714.489 486.005
C 715.28 494.96 722.078 501.872 731.318 501.598
C 736.312 501.451 740.884 499.214 743.364 494.788
C 743.774 494.056 744.895 492.316 744.803 491.479
C 739.859 491.345 734.826 491.14 729.885 491.438
C 729.368 489.462 729.8 487.06 729.717 485.015
C 729.676 484 729.384 482.689 729.786 481.792
C 738.238 481.538 746.725 481.765 755.181 481.743
C 755.688 484.959 755.35 489.177 754.64 492.344
C 753.861 495.817 752.333 499.228 750.209 502.086
C 738.055 518.441 710.405 512.033 705.106 492.979
C 704.007 489.026 703.762 484.647 704.381 480.596 Z"
opacity="1" fill="rgb(205,69,46)" fill-rule="evenodd" />

</svg>