<svg xmlns="http://www.w3.org/2000/svg" viewBox="0 0 320 320" role="img" aria-labelledby="logoTitle logoDesc">
  <title id="logoTitle">Dheepan Tutoring Logo</title>
  <desc id="logoDesc">Minimal logo combining an atom and an open book for physics tutoring.</desc>
  <defs>
    <linearGradient id="orbGradient" x1="0%" y1="0%" x2="100%" y2="100%">
      <stop offset="0%" stop-color="#b58f5f"/>
      <stop offset="100%" stop-color="#6f5538"/>
    </linearGradient>
    <linearGradient id="bookGradient" x1="0%" y1="0%" x2="0%" y2="100%">
      <stop offset="0%" stop-color="#f8f0e3"/>
      <stop offset="100%" stop-color="#e7d6bc"/>
    </linearGradient>
  </defs>

  <circle cx="160" cy="160" r="148" fill="#f7f1e7" stroke="#d8c8af" stroke-width="8"/>

  <g fill="none" stroke="url(#orbGradient)" stroke-width="8" stroke-linecap="round">
    <ellipse cx="160" cy="125" rx="84" ry="34"/>
    <ellipse cx="160" cy="125" rx="84" ry="34" transform="rotate(60 160 125)"/>
    <ellipse cx="160" cy="125" rx="84" ry="34" transform="rotate(-60 160 125)"/>
  </g>

  <circle cx="160" cy="125" r="12" fill="#6f5538"/>
  <circle cx="232" cy="141" r="7.5" fill="#90714c"/>
  <circle cx="95" cy="111" r="7.5" fill="#90714c"/>
  <circle cx="152" cy="55" r="7.5" fill="#90714c"/>

  <path d="M65 182c34-20 74-24 95-24v95c-27-10-59-13-95-7z" fill="url(#bookGradient)" stroke="#bda783" stroke-width="5" stroke-linejoin="round"/>
  <path d="M255 182c-34-20-74-24-95-24v95c27-10 59-13 95-7z" fill="url(#bookGradient)" stroke="#bda783" stroke-width="5" stroke-linejoin="round"/>
  <path d="M160 158v95" stroke="#bda783" stroke-width="4"/>
  <path d="M97 205c24-9 42-11 63-9M223 205c-24-9-42-11-63-9" stroke="#cab796" stroke-width="3" stroke-linecap="round"/>

  <text x="160" y="292" text-anchor="middle" font-size="30" font-weight="700" fill="#6f5538" font-family="Georgia, 'Times New Roman', serif">DT</text>
</svg>
